<mxfile host="app.diagrams.net" agent="Mozilla/5.0 (X11; Ubuntu; Linux x86_64; rv:129.0) Gecko/20100101 Firefox/129.0" version="24.7.8" pages="2">
  <diagram name="Page-1" id="iGEM-IBr7h7DMKVDJOMU">
    <mxGraphModel dx="1246" dy="669" grid="1" gridSize="10" guides="1" tooltips="1" connect="1" arrows="1" fold="1" page="1" pageScale="1" pageWidth="850" pageHeight="1100" math="0" shadow="0">
      <root>
        <mxCell id="0" />
        <mxCell id="1" parent="0" />
        <mxCell id="YFj303eYcoNk-0xLr7Lf-1" value="Testbench" style="rounded=0;whiteSpace=wrap;html=1;" vertex="1" parent="1">
          <mxGeometry x="90" y="120" width="120" height="240" as="geometry" />
        </mxCell>
        <mxCell id="00WxSKmrzNwbh7hd7kRl-1" style="edgeStyle=orthogonalEdgeStyle;rounded=0;orthogonalLoop=1;jettySize=auto;html=1;exitX=0;exitY=0.75;exitDx=0;exitDy=0;entryX=1;entryY=0.75;entryDx=0;entryDy=0;" edge="1" parent="1" source="YFj303eYcoNk-0xLr7Lf-2" target="YFj303eYcoNk-0xLr7Lf-1">
          <mxGeometry relative="1" as="geometry" />
        </mxCell>
        <mxCell id="YFj303eYcoNk-0xLr7Lf-2" value="&lt;div&gt;Packet&lt;/div&gt;&lt;div&gt;Generator&lt;br&gt;&lt;/div&gt;" style="rounded=0;whiteSpace=wrap;html=1;" vertex="1" parent="1">
          <mxGeometry x="360" y="120" width="120" height="240" as="geometry" />
        </mxCell>
        <mxCell id="YFj303eYcoNk-0xLr7Lf-3" value="&lt;div&gt;NOC&lt;br&gt;Router&lt;br&gt;with &lt;br&gt;Controller &lt;br&gt;&lt;/div&gt;" style="rounded=0;whiteSpace=wrap;html=1;" vertex="1" parent="1">
          <mxGeometry x="630" y="120" width="120" height="240" as="geometry" />
        </mxCell>
        <mxCell id="YFj303eYcoNk-0xLr7Lf-4" value="" style="edgeStyle=none;orthogonalLoop=1;jettySize=auto;html=1;rounded=0;" edge="1" parent="1">
          <mxGeometry width="80" relative="1" as="geometry">
            <mxPoint x="210" y="129" as="sourcePoint" />
            <mxPoint x="360" y="129" as="targetPoint" />
            <Array as="points" />
          </mxGeometry>
        </mxCell>
        <mxCell id="YFj303eYcoNk-0xLr7Lf-5" value="" style="edgeStyle=none;orthogonalLoop=1;jettySize=auto;html=1;rounded=0;" edge="1" parent="1">
          <mxGeometry width="80" relative="1" as="geometry">
            <mxPoint x="210" y="155" as="sourcePoint" />
            <mxPoint x="360" y="155" as="targetPoint" />
            <Array as="points" />
          </mxGeometry>
        </mxCell>
        <mxCell id="YFj303eYcoNk-0xLr7Lf-6" value="dest_address" style="text;html=1;align=center;verticalAlign=middle;resizable=0;points=[];autosize=1;strokeColor=none;fillColor=none;" vertex="1" parent="1">
          <mxGeometry x="220" y="105" width="100" height="30" as="geometry" />
        </mxCell>
        <mxCell id="YFj303eYcoNk-0xLr7Lf-7" value="packet_type" style="text;html=1;align=center;verticalAlign=middle;resizable=0;points=[];autosize=1;strokeColor=none;fillColor=none;" vertex="1" parent="1">
          <mxGeometry x="220" y="133" width="90" height="30" as="geometry" />
        </mxCell>
        <mxCell id="YFj303eYcoNk-0xLr7Lf-8" value="" style="edgeStyle=none;orthogonalLoop=1;jettySize=auto;html=1;rounded=0;" edge="1" parent="1">
          <mxGeometry width="80" relative="1" as="geometry">
            <mxPoint x="210" y="185" as="sourcePoint" />
            <mxPoint x="360" y="185" as="targetPoint" />
            <Array as="points" />
          </mxGeometry>
        </mxCell>
        <mxCell id="YFj303eYcoNk-0xLr7Lf-9" value="payload" style="text;html=1;align=center;verticalAlign=middle;resizable=0;points=[];autosize=1;strokeColor=none;fillColor=none;" vertex="1" parent="1">
          <mxGeometry x="220" y="163" width="70" height="30" as="geometry" />
        </mxCell>
        <mxCell id="YFj303eYcoNk-0xLr7Lf-21" value="" style="edgeStyle=none;orthogonalLoop=1;jettySize=auto;html=1;rounded=0;" edge="1" parent="1">
          <mxGeometry width="80" relative="1" as="geometry">
            <mxPoint x="480" y="134.5" as="sourcePoint" />
            <mxPoint x="630" y="134.5" as="targetPoint" />
            <Array as="points" />
          </mxGeometry>
        </mxCell>
        <mxCell id="YFj303eYcoNk-0xLr7Lf-22" value="src_valid" style="text;html=1;align=center;verticalAlign=middle;resizable=0;points=[];autosize=1;strokeColor=none;fillColor=none;" vertex="1" parent="1">
          <mxGeometry x="500" y="110" width="70" height="30" as="geometry" />
        </mxCell>
        <mxCell id="YFj303eYcoNk-0xLr7Lf-23" value="" style="edgeStyle=none;orthogonalLoop=1;jettySize=auto;html=1;rounded=0;" edge="1" parent="1">
          <mxGeometry width="80" relative="1" as="geometry">
            <mxPoint x="630" y="162.5" as="sourcePoint" />
            <mxPoint x="480" y="162.5" as="targetPoint" />
            <Array as="points" />
          </mxGeometry>
        </mxCell>
        <mxCell id="YFj303eYcoNk-0xLr7Lf-24" value="src_ready" style="text;html=1;align=center;verticalAlign=middle;resizable=0;points=[];autosize=1;strokeColor=none;fillColor=none;" vertex="1" parent="1">
          <mxGeometry x="495" y="140" width="80" height="30" as="geometry" />
        </mxCell>
        <mxCell id="YFj303eYcoNk-0xLr7Lf-25" value="" style="edgeStyle=none;orthogonalLoop=1;jettySize=auto;html=1;rounded=0;" edge="1" parent="1">
          <mxGeometry width="80" relative="1" as="geometry">
            <mxPoint x="480" y="192.5" as="sourcePoint" />
            <mxPoint x="630" y="192.5" as="targetPoint" />
            <Array as="points" />
          </mxGeometry>
        </mxCell>
        <mxCell id="YFj303eYcoNk-0xLr7Lf-26" value="packet" style="text;html=1;align=center;verticalAlign=middle;resizable=0;points=[];autosize=1;strokeColor=none;fillColor=none;" vertex="1" parent="1">
          <mxGeometry x="500" y="170" width="60" height="30" as="geometry" />
        </mxCell>
        <mxCell id="YFj303eYcoNk-0xLr7Lf-27" value="" style="edgeStyle=none;orthogonalLoop=1;jettySize=auto;html=1;rounded=0;" edge="1" parent="1">
          <mxGeometry width="80" relative="1" as="geometry">
            <mxPoint x="630" y="222.5" as="sourcePoint" />
            <mxPoint x="480" y="222.5" as="targetPoint" />
            <Array as="points" />
          </mxGeometry>
        </mxCell>
        <mxCell id="YFj303eYcoNk-0xLr7Lf-28" value="transfer_en" style="text;html=1;align=center;verticalAlign=middle;resizable=0;points=[];autosize=1;strokeColor=none;fillColor=none;" vertex="1" parent="1">
          <mxGeometry x="495" y="200" width="80" height="30" as="geometry" />
        </mxCell>
        <mxCell id="YFj303eYcoNk-0xLr7Lf-31" value="" style="edgeStyle=none;orthogonalLoop=1;jettySize=auto;html=1;rounded=0;" edge="1" parent="1">
          <mxGeometry width="80" relative="1" as="geometry">
            <mxPoint x="630" y="252.5" as="sourcePoint" />
            <mxPoint x="480" y="252.5" as="targetPoint" />
            <Array as="points" />
          </mxGeometry>
        </mxCell>
        <mxCell id="YFj303eYcoNk-0xLr7Lf-32" value="dest_valid" style="text;html=1;align=center;verticalAlign=middle;resizable=0;points=[];autosize=1;strokeColor=none;fillColor=none;" vertex="1" parent="1">
          <mxGeometry x="495" y="225" width="80" height="30" as="geometry" />
        </mxCell>
        <mxCell id="YFj303eYcoNk-0xLr7Lf-40" value="" style="edgeStyle=none;orthogonalLoop=1;jettySize=auto;html=1;rounded=0;" edge="1" parent="1">
          <mxGeometry width="80" relative="1" as="geometry">
            <mxPoint x="210" y="210" as="sourcePoint" />
            <mxPoint x="360" y="210" as="targetPoint" />
            <Array as="points" />
          </mxGeometry>
        </mxCell>
        <mxCell id="YFj303eYcoNk-0xLr7Lf-41" value="eop" style="text;html=1;align=center;verticalAlign=middle;resizable=0;points=[];autosize=1;strokeColor=none;fillColor=none;" vertex="1" parent="1">
          <mxGeometry x="230" y="188" width="40" height="30" as="geometry" />
        </mxCell>
        <mxCell id="YFj303eYcoNk-0xLr7Lf-42" value="&lt;b&gt;&lt;font style=&quot;font-size: 50px;&quot;&gt;Pinout Diagram&lt;/font&gt;&lt;/b&gt;" style="text;html=1;align=center;verticalAlign=middle;resizable=0;points=[];autosize=1;strokeColor=none;fillColor=none;" vertex="1" parent="1">
          <mxGeometry x="220" y="30" width="390" height="70" as="geometry" />
        </mxCell>
        <mxCell id="YFj303eYcoNk-0xLr7Lf-62" style="edgeStyle=orthogonalEdgeStyle;rounded=0;orthogonalLoop=1;jettySize=auto;html=1;exitX=1;exitY=1;exitDx=0;exitDy=0;curved=1;" edge="1" parent="1" source="YFj303eYcoNk-0xLr7Lf-43" target="YFj303eYcoNk-0xLr7Lf-61">
          <mxGeometry relative="1" as="geometry" />
        </mxCell>
        <mxCell id="YFj303eYcoNk-0xLr7Lf-43" value="S0" style="ellipse;whiteSpace=wrap;html=1;aspect=fixed;" vertex="1" parent="1">
          <mxGeometry x="360" y="572" width="80" height="80" as="geometry" />
        </mxCell>
        <mxCell id="YFj303eYcoNk-0xLr7Lf-44" value="" style="endArrow=classic;html=1;rounded=0;entryX=0.063;entryY=0.263;entryDx=0;entryDy=0;entryPerimeter=0;" edge="1" parent="1" target="YFj303eYcoNk-0xLr7Lf-43">
          <mxGeometry width="50" height="50" relative="1" as="geometry">
            <mxPoint x="280" y="562" as="sourcePoint" />
            <mxPoint x="330" y="512" as="targetPoint" />
          </mxGeometry>
        </mxCell>
        <mxCell id="YFj303eYcoNk-0xLr7Lf-45" value="reset" style="text;html=1;align=center;verticalAlign=middle;resizable=0;points=[];autosize=1;strokeColor=none;fillColor=none;" vertex="1" parent="1">
          <mxGeometry x="260" y="532" width="50" height="30" as="geometry" />
        </mxCell>
        <mxCell id="YFj303eYcoNk-0xLr7Lf-46" value="" style="endArrow=none;html=1;rounded=0;" edge="1" parent="1">
          <mxGeometry width="50" height="50" relative="1" as="geometry">
            <mxPoint x="322" y="140" as="sourcePoint" />
            <mxPoint x="342" y="120" as="targetPoint" />
          </mxGeometry>
        </mxCell>
        <mxCell id="YFj303eYcoNk-0xLr7Lf-47" value="" style="endArrow=none;html=1;rounded=0;" edge="1" parent="1">
          <mxGeometry width="50" height="50" relative="1" as="geometry">
            <mxPoint x="328" y="164" as="sourcePoint" />
            <mxPoint x="348" y="144" as="targetPoint" />
          </mxGeometry>
        </mxCell>
        <mxCell id="YFj303eYcoNk-0xLr7Lf-48" value="" style="endArrow=none;html=1;rounded=0;" edge="1" parent="1">
          <mxGeometry width="50" height="50" relative="1" as="geometry">
            <mxPoint x="308" y="195" as="sourcePoint" />
            <mxPoint x="328" y="175" as="targetPoint" />
          </mxGeometry>
        </mxCell>
        <mxCell id="YFj303eYcoNk-0xLr7Lf-49" value="" style="endArrow=none;html=1;rounded=0;" edge="1" parent="1">
          <mxGeometry width="50" height="50" relative="1" as="geometry">
            <mxPoint x="584" y="204" as="sourcePoint" />
            <mxPoint x="604" y="184" as="targetPoint" />
          </mxGeometry>
        </mxCell>
        <mxCell id="YFj303eYcoNk-0xLr7Lf-50" value="2" style="text;html=1;align=center;verticalAlign=middle;resizable=0;points=[];autosize=1;strokeColor=none;fillColor=none;" vertex="1" parent="1">
          <mxGeometry x="310" y="105" width="30" height="30" as="geometry" />
        </mxCell>
        <mxCell id="YFj303eYcoNk-0xLr7Lf-51" value="2" style="text;html=1;align=center;verticalAlign=middle;resizable=0;points=[];autosize=1;strokeColor=none;fillColor=none;" vertex="1" parent="1">
          <mxGeometry x="315" y="128" width="30" height="30" as="geometry" />
        </mxCell>
        <mxCell id="YFj303eYcoNk-0xLr7Lf-52" value="8" style="text;html=1;align=center;verticalAlign=middle;resizable=0;points=[];autosize=1;strokeColor=none;fillColor=none;" vertex="1" parent="1">
          <mxGeometry x="290" y="163" width="30" height="30" as="geometry" />
        </mxCell>
        <mxCell id="YFj303eYcoNk-0xLr7Lf-53" value="13" style="text;html=1;align=center;verticalAlign=middle;resizable=0;points=[];autosize=1;strokeColor=none;fillColor=none;" vertex="1" parent="1">
          <mxGeometry x="570" y="168" width="40" height="30" as="geometry" />
        </mxCell>
        <mxCell id="YFj303eYcoNk-0xLr7Lf-57" style="edgeStyle=orthogonalEdgeStyle;rounded=0;orthogonalLoop=1;jettySize=auto;html=1;exitX=0.5;exitY=0;exitDx=0;exitDy=0;entryX=1;entryY=0;entryDx=0;entryDy=0;curved=1;" edge="1" parent="1" source="YFj303eYcoNk-0xLr7Lf-43" target="YFj303eYcoNk-0xLr7Lf-43">
          <mxGeometry relative="1" as="geometry">
            <Array as="points">
              <mxPoint x="400" y="552" />
              <mxPoint x="428" y="552" />
            </Array>
          </mxGeometry>
        </mxCell>
        <mxCell id="YFj303eYcoNk-0xLr7Lf-58" value="!src_valid" style="text;html=1;align=center;verticalAlign=middle;resizable=0;points=[];autosize=1;strokeColor=none;fillColor=none;" vertex="1" parent="1">
          <mxGeometry x="385" y="522" width="70" height="30" as="geometry" />
        </mxCell>
        <mxCell id="YFj303eYcoNk-0xLr7Lf-59" value="" style="edgeStyle=none;orthogonalLoop=1;jettySize=auto;html=1;rounded=0;" edge="1" parent="1">
          <mxGeometry width="80" relative="1" as="geometry">
            <mxPoint x="210" y="239.57999999999998" as="sourcePoint" />
            <mxPoint x="360" y="239.57999999999998" as="targetPoint" />
            <Array as="points" />
          </mxGeometry>
        </mxCell>
        <mxCell id="YFj303eYcoNk-0xLr7Lf-60" value="start" style="text;html=1;align=center;verticalAlign=middle;resizable=0;points=[];autosize=1;strokeColor=none;fillColor=none;" vertex="1" parent="1">
          <mxGeometry x="225" y="216" width="50" height="30" as="geometry" />
        </mxCell>
        <mxCell id="YFj303eYcoNk-0xLr7Lf-61" value="S1" style="ellipse;whiteSpace=wrap;html=1;aspect=fixed;" vertex="1" parent="1">
          <mxGeometry x="500" y="702" width="80" height="80" as="geometry" />
        </mxCell>
        <mxCell id="YFj303eYcoNk-0xLr7Lf-63" value="src_valid/ src_ready, transfer_en, get_packet" style="text;html=1;align=center;verticalAlign=middle;resizable=0;points=[];autosize=1;strokeColor=none;fillColor=none;" vertex="1" parent="1">
          <mxGeometry x="430" y="622" width="260" height="30" as="geometry" />
        </mxCell>
        <mxCell id="YFj303eYcoNk-0xLr7Lf-65" value="!dest_valid/ transfer_en" style="text;html=1;align=center;verticalAlign=middle;resizable=0;points=[];autosize=1;strokeColor=none;fillColor=none;" vertex="1" parent="1">
          <mxGeometry x="590" y="732" width="150" height="30" as="geometry" />
        </mxCell>
        <mxCell id="YFj303eYcoNk-0xLr7Lf-88" style="edgeStyle=orthogonalEdgeStyle;rounded=0;orthogonalLoop=1;jettySize=auto;html=1;exitX=0;exitY=0;exitDx=0;exitDy=0;entryX=0.635;entryY=1.025;entryDx=0;entryDy=0;entryPerimeter=0;curved=1;" edge="1" parent="1" source="YFj303eYcoNk-0xLr7Lf-61" target="YFj303eYcoNk-0xLr7Lf-43">
          <mxGeometry relative="1" as="geometry" />
        </mxCell>
        <mxCell id="YFj303eYcoNk-0xLr7Lf-89" value="stop / dest_valid" style="text;html=1;align=center;verticalAlign=middle;resizable=0;points=[];autosize=1;strokeColor=none;fillColor=none;" vertex="1" parent="1">
          <mxGeometry x="410" y="672" width="110" height="30" as="geometry" />
        </mxCell>
        <mxCell id="00WxSKmrzNwbh7hd7kRl-2" value="end" style="text;html=1;align=center;verticalAlign=middle;resizable=0;points=[];autosize=1;strokeColor=none;fillColor=none;" vertex="1" parent="1">
          <mxGeometry x="220" y="268" width="40" height="30" as="geometry" />
        </mxCell>
        <mxCell id="00WxSKmrzNwbh7hd7kRl-5" value="" style="rounded=0;whiteSpace=wrap;html=1;" vertex="1" parent="1">
          <mxGeometry x="1140" y="100" width="410" height="340" as="geometry" />
        </mxCell>
        <mxCell id="00WxSKmrzNwbh7hd7kRl-18" value="" style="edgeStyle=none;orthogonalLoop=1;jettySize=auto;html=1;rounded=0;" edge="1" parent="1">
          <mxGeometry width="80" relative="1" as="geometry">
            <mxPoint x="990" y="152.5" as="sourcePoint" />
            <mxPoint x="1140" y="152.5" as="targetPoint" />
            <Array as="points" />
          </mxGeometry>
        </mxCell>
        <mxCell id="00WxSKmrzNwbh7hd7kRl-19" value="src_valid" style="text;html=1;align=center;verticalAlign=middle;resizable=0;points=[];autosize=1;strokeColor=none;fillColor=none;" vertex="1" parent="1">
          <mxGeometry x="1010" y="128" width="70" height="30" as="geometry" />
        </mxCell>
        <mxCell id="00WxSKmrzNwbh7hd7kRl-20" value="" style="edgeStyle=none;orthogonalLoop=1;jettySize=auto;html=1;rounded=0;exitX=-0.019;exitY=0.231;exitDx=0;exitDy=0;exitPerimeter=0;" edge="1" parent="1" source="00WxSKmrzNwbh7hd7kRl-4">
          <mxGeometry width="80" relative="1" as="geometry">
            <mxPoint x="1140" y="180.5" as="sourcePoint" />
            <mxPoint x="990" y="180.5" as="targetPoint" />
            <Array as="points" />
          </mxGeometry>
        </mxCell>
        <mxCell id="00WxSKmrzNwbh7hd7kRl-21" value="src_ready" style="text;html=1;align=center;verticalAlign=middle;resizable=0;points=[];autosize=1;strokeColor=none;fillColor=none;" vertex="1" parent="1">
          <mxGeometry x="1005" y="158" width="80" height="30" as="geometry" />
        </mxCell>
        <mxCell id="00WxSKmrzNwbh7hd7kRl-22" value="" style="edgeStyle=none;orthogonalLoop=1;jettySize=auto;html=1;rounded=0;" edge="1" parent="1">
          <mxGeometry width="80" relative="1" as="geometry">
            <mxPoint x="990" y="210.5" as="sourcePoint" />
            <mxPoint x="1140" y="210.5" as="targetPoint" />
            <Array as="points" />
          </mxGeometry>
        </mxCell>
        <mxCell id="00WxSKmrzNwbh7hd7kRl-23" value="packet" style="text;html=1;align=center;verticalAlign=middle;resizable=0;points=[];autosize=1;strokeColor=none;fillColor=none;" vertex="1" parent="1">
          <mxGeometry x="1010" y="188" width="60" height="30" as="geometry" />
        </mxCell>
        <mxCell id="00WxSKmrzNwbh7hd7kRl-24" value="" style="edgeStyle=none;orthogonalLoop=1;jettySize=auto;html=1;rounded=0;" edge="1" parent="1">
          <mxGeometry width="80" relative="1" as="geometry">
            <mxPoint x="1140" y="240.5" as="sourcePoint" />
            <mxPoint x="990" y="240.5" as="targetPoint" />
            <Array as="points" />
          </mxGeometry>
        </mxCell>
        <mxCell id="00WxSKmrzNwbh7hd7kRl-25" value="transfer_en" style="text;html=1;align=center;verticalAlign=middle;resizable=0;points=[];autosize=1;strokeColor=none;fillColor=none;" vertex="1" parent="1">
          <mxGeometry x="1005" y="218" width="80" height="30" as="geometry" />
        </mxCell>
        <mxCell id="00WxSKmrzNwbh7hd7kRl-26" value="" style="edgeStyle=none;orthogonalLoop=1;jettySize=auto;html=1;rounded=0;" edge="1" parent="1">
          <mxGeometry width="80" relative="1" as="geometry">
            <mxPoint x="1140" y="270.5" as="sourcePoint" />
            <mxPoint x="990" y="270.5" as="targetPoint" />
            <Array as="points" />
          </mxGeometry>
        </mxCell>
        <mxCell id="00WxSKmrzNwbh7hd7kRl-27" value="dest_valid" style="text;html=1;align=center;verticalAlign=middle;resizable=0;points=[];autosize=1;strokeColor=none;fillColor=none;" vertex="1" parent="1">
          <mxGeometry x="1005" y="243" width="80" height="30" as="geometry" />
        </mxCell>
        <mxCell id="00WxSKmrzNwbh7hd7kRl-28" value="" style="endArrow=none;html=1;rounded=0;" edge="1" parent="1">
          <mxGeometry width="50" height="50" relative="1" as="geometry">
            <mxPoint x="1094" y="222" as="sourcePoint" />
            <mxPoint x="1114" y="202" as="targetPoint" />
          </mxGeometry>
        </mxCell>
        <mxCell id="00WxSKmrzNwbh7hd7kRl-29" value="13" style="text;html=1;align=center;verticalAlign=middle;resizable=0;points=[];autosize=1;strokeColor=none;fillColor=none;" vertex="1" parent="1">
          <mxGeometry x="1080" y="186" width="40" height="30" as="geometry" />
        </mxCell>
        <mxCell id="00WxSKmrzNwbh7hd7kRl-33" value="" style="edgeStyle=none;orthogonalLoop=1;jettySize=auto;html=1;rounded=0;" edge="1" parent="1">
          <mxGeometry width="80" relative="1" as="geometry">
            <mxPoint x="1150" y="152.5" as="sourcePoint" />
            <mxPoint x="1300" y="152.5" as="targetPoint" />
            <Array as="points" />
          </mxGeometry>
        </mxCell>
        <mxCell id="00WxSKmrzNwbh7hd7kRl-34" value="src_ready" style="text;html=1;align=center;verticalAlign=middle;resizable=0;points=[];autosize=1;strokeColor=none;fillColor=none;" vertex="1" parent="1">
          <mxGeometry x="1180" y="122" width="80" height="30" as="geometry" />
        </mxCell>
        <mxCell id="00WxSKmrzNwbh7hd7kRl-35" value="" style="edgeStyle=none;orthogonalLoop=1;jettySize=auto;html=1;rounded=0;" edge="1" parent="1">
          <mxGeometry width="80" relative="1" as="geometry">
            <mxPoint x="1300" y="268.5" as="sourcePoint" />
            <mxPoint x="1150" y="268.5" as="targetPoint" />
            <Array as="points" />
          </mxGeometry>
        </mxCell>
        <mxCell id="00WxSKmrzNwbh7hd7kRl-36" value="dest_ready" style="text;html=1;align=center;verticalAlign=middle;resizable=0;points=[];autosize=1;strokeColor=none;fillColor=none;" vertex="1" parent="1">
          <mxGeometry x="1165" y="246" width="80" height="30" as="geometry" />
        </mxCell>
        <mxCell id="00WxSKmrzNwbh7hd7kRl-37" value="" style="edgeStyle=none;orthogonalLoop=1;jettySize=auto;html=1;rounded=0;" edge="1" parent="1">
          <mxGeometry width="80" relative="1" as="geometry">
            <mxPoint x="1245" y="200" as="sourcePoint" />
            <mxPoint x="1302" y="200" as="targetPoint" />
            <Array as="points" />
          </mxGeometry>
        </mxCell>
        <mxCell id="00WxSKmrzNwbh7hd7kRl-38" value="stop" style="text;html=1;align=center;verticalAlign=middle;resizable=0;points=[];autosize=1;strokeColor=none;fillColor=none;" vertex="1" parent="1">
          <mxGeometry x="1230" y="180" width="50" height="30" as="geometry" />
        </mxCell>
        <mxCell id="00WxSKmrzNwbh7hd7kRl-39" value="" style="edgeStyle=none;orthogonalLoop=1;jettySize=auto;html=1;rounded=0;" edge="1" parent="1">
          <mxGeometry width="80" relative="1" as="geometry">
            <mxPoint x="1150" y="289.5" as="sourcePoint" />
            <mxPoint x="1300" y="289.5" as="targetPoint" />
            <Array as="points" />
          </mxGeometry>
        </mxCell>
        <mxCell id="00WxSKmrzNwbh7hd7kRl-40" value="src_valid" style="text;html=1;align=center;verticalAlign=middle;resizable=0;points=[];autosize=1;strokeColor=none;fillColor=none;" vertex="1" parent="1">
          <mxGeometry x="1170" y="267" width="70" height="30" as="geometry" />
        </mxCell>
        <mxCell id="00WxSKmrzNwbh7hd7kRl-41" value="" style="shape=flexArrow;endArrow=classic;html=1;rounded=0;" edge="1" parent="1">
          <mxGeometry width="50" height="50" relative="1" as="geometry">
            <mxPoint x="770" y="220" as="sourcePoint" />
            <mxPoint x="940" y="220" as="targetPoint" />
          </mxGeometry>
        </mxCell>
        <mxCell id="00WxSKmrzNwbh7hd7kRl-42" value="" style="edgeStyle=none;orthogonalLoop=1;jettySize=auto;html=1;rounded=0;" edge="1" parent="1">
          <mxGeometry width="80" relative="1" as="geometry">
            <mxPoint x="1300" y="240.5" as="sourcePoint" />
            <mxPoint x="1150" y="240.5" as="targetPoint" />
            <Array as="points" />
          </mxGeometry>
        </mxCell>
        <mxCell id="00WxSKmrzNwbh7hd7kRl-43" value="transfer_en" style="text;html=1;align=center;verticalAlign=middle;resizable=0;points=[];autosize=1;strokeColor=none;fillColor=none;" vertex="1" parent="1">
          <mxGeometry x="1165" y="218" width="80" height="30" as="geometry" />
        </mxCell>
        <mxCell id="00WxSKmrzNwbh7hd7kRl-45" value="" style="edgeStyle=none;orthogonalLoop=1;jettySize=auto;html=1;rounded=0;" edge="1" parent="1">
          <mxGeometry width="80" relative="1" as="geometry">
            <mxPoint x="1300" y="346.5" as="sourcePoint" />
            <mxPoint x="1240" y="347" as="targetPoint" />
            <Array as="points" />
          </mxGeometry>
        </mxCell>
        <mxCell id="00WxSKmrzNwbh7hd7kRl-46" value="get_packet" style="text;html=1;align=center;verticalAlign=middle;resizable=0;points=[];autosize=1;strokeColor=none;fillColor=none;" vertex="1" parent="1">
          <mxGeometry x="1215" y="310" width="80" height="30" as="geometry" />
        </mxCell>
        <mxCell id="00WxSKmrzNwbh7hd7kRl-4" value="Controller " style="rounded=0;whiteSpace=wrap;html=1;" vertex="1" parent="1">
          <mxGeometry x="1300" y="122" width="120" height="240" as="geometry" />
        </mxCell>
        <mxCell id="00WxSKmrzNwbh7hd7kRl-49" value="NOC" style="text;html=1;align=center;verticalAlign=middle;whiteSpace=wrap;rounded=0;" vertex="1" parent="1">
          <mxGeometry x="1330" y="380" width="60" height="30" as="geometry" />
        </mxCell>
        <mxCell id="00WxSKmrzNwbh7hd7kRl-50" value="&lt;font style=&quot;font-size: 30px;&quot;&gt;Simple STG&lt;/font&gt;" style="text;html=1;align=center;verticalAlign=middle;resizable=0;points=[];autosize=1;strokeColor=none;fillColor=none;" vertex="1" parent="1">
          <mxGeometry x="300" y="438" width="180" height="50" as="geometry" />
        </mxCell>
      </root>
    </mxGraphModel>
  </diagram>
  <diagram id="2fG7KVjIAT6vduGLJK6E" name="Page-2">
    <mxGraphModel dx="810" dy="435" grid="1" gridSize="10" guides="1" tooltips="1" connect="1" arrows="1" fold="1" page="1" pageScale="1" pageWidth="850" pageHeight="1100" math="0" shadow="0">
      <root>
        <mxCell id="0" />
        <mxCell id="1" parent="0" />
        <mxCell id="7Yyz0w7mEjBxyOWhJi1k-1" style="edgeStyle=orthogonalEdgeStyle;rounded=0;orthogonalLoop=1;jettySize=auto;html=1;exitX=1;exitY=1;exitDx=0;exitDy=0;curved=1;" edge="1" parent="1" source="7Yyz0w7mEjBxyOWhJi1k-2" target="7Yyz0w7mEjBxyOWhJi1k-9">
          <mxGeometry relative="1" as="geometry" />
        </mxCell>
        <mxCell id="7Yyz0w7mEjBxyOWhJi1k-2" value="S0" style="ellipse;whiteSpace=wrap;html=1;aspect=fixed;" vertex="1" parent="1">
          <mxGeometry x="360" y="480" width="80" height="80" as="geometry" />
        </mxCell>
        <mxCell id="7Yyz0w7mEjBxyOWhJi1k-3" value="" style="endArrow=classic;html=1;rounded=0;entryX=0.063;entryY=0.263;entryDx=0;entryDy=0;entryPerimeter=0;" edge="1" parent="1" target="7Yyz0w7mEjBxyOWhJi1k-2">
          <mxGeometry width="50" height="50" relative="1" as="geometry">
            <mxPoint x="280" y="470" as="sourcePoint" />
            <mxPoint x="330" y="420" as="targetPoint" />
          </mxGeometry>
        </mxCell>
        <mxCell id="7Yyz0w7mEjBxyOWhJi1k-4" value="reset" style="text;html=1;align=center;verticalAlign=middle;resizable=0;points=[];autosize=1;strokeColor=none;fillColor=none;" vertex="1" parent="1">
          <mxGeometry x="260" y="440" width="50" height="30" as="geometry" />
        </mxCell>
        <mxCell id="7Yyz0w7mEjBxyOWhJi1k-5" style="edgeStyle=orthogonalEdgeStyle;rounded=0;orthogonalLoop=1;jettySize=auto;html=1;exitX=0.5;exitY=0;exitDx=0;exitDy=0;entryX=1;entryY=0;entryDx=0;entryDy=0;curved=1;" edge="1" parent="1" source="7Yyz0w7mEjBxyOWhJi1k-2" target="7Yyz0w7mEjBxyOWhJi1k-2">
          <mxGeometry relative="1" as="geometry">
            <Array as="points">
              <mxPoint x="400" y="460" />
              <mxPoint x="428" y="460" />
            </Array>
          </mxGeometry>
        </mxCell>
        <mxCell id="7Yyz0w7mEjBxyOWhJi1k-6" value="!src_valid" style="text;html=1;align=center;verticalAlign=middle;resizable=0;points=[];autosize=1;strokeColor=none;fillColor=none;" vertex="1" parent="1">
          <mxGeometry x="385" y="430" width="70" height="30" as="geometry" />
        </mxCell>
        <mxCell id="7Yyz0w7mEjBxyOWhJi1k-7" style="edgeStyle=orthogonalEdgeStyle;rounded=0;orthogonalLoop=1;jettySize=auto;html=1;exitX=0;exitY=1;exitDx=0;exitDy=0;entryX=1;entryY=0;entryDx=0;entryDy=0;curved=1;" edge="1" parent="1" source="7Yyz0w7mEjBxyOWhJi1k-9" target="7Yyz0w7mEjBxyOWhJi1k-14">
          <mxGeometry relative="1" as="geometry" />
        </mxCell>
        <mxCell id="7Yyz0w7mEjBxyOWhJi1k-8" style="edgeStyle=orthogonalEdgeStyle;rounded=0;orthogonalLoop=1;jettySize=auto;html=1;exitX=0;exitY=0.5;exitDx=0;exitDy=0;" edge="1" parent="1" source="7Yyz0w7mEjBxyOWhJi1k-9">
          <mxGeometry relative="1" as="geometry">
            <mxPoint x="260" y="650.3333333333335" as="targetPoint" />
          </mxGeometry>
        </mxCell>
        <mxCell id="7Yyz0w7mEjBxyOWhJi1k-9" value="S1" style="ellipse;whiteSpace=wrap;html=1;aspect=fixed;" vertex="1" parent="1">
          <mxGeometry x="500" y="610" width="80" height="80" as="geometry" />
        </mxCell>
        <mxCell id="7Yyz0w7mEjBxyOWhJi1k-10" value="src_valid/ src_ready, transfer_en" style="text;html=1;align=center;verticalAlign=middle;resizable=0;points=[];autosize=1;strokeColor=none;fillColor=none;" vertex="1" parent="1">
          <mxGeometry x="460" y="530" width="200" height="30" as="geometry" />
        </mxCell>
        <mxCell id="7Yyz0w7mEjBxyOWhJi1k-11" style="edgeStyle=orthogonalEdgeStyle;rounded=0;orthogonalLoop=1;jettySize=auto;html=1;exitX=1;exitY=0.5;exitDx=0;exitDy=0;entryX=0.75;entryY=1;entryDx=0;entryDy=0;entryPerimeter=0;curved=1;" edge="1" parent="1" source="7Yyz0w7mEjBxyOWhJi1k-9" target="7Yyz0w7mEjBxyOWhJi1k-9">
          <mxGeometry relative="1" as="geometry" />
        </mxCell>
        <mxCell id="7Yyz0w7mEjBxyOWhJi1k-12" value="!dest_valid/ transfer_en" style="text;html=1;align=center;verticalAlign=middle;resizable=0;points=[];autosize=1;strokeColor=none;fillColor=none;" vertex="1" parent="1">
          <mxGeometry x="590" y="640" width="150" height="30" as="geometry" />
        </mxCell>
        <mxCell id="7Yyz0w7mEjBxyOWhJi1k-13" style="edgeStyle=orthogonalEdgeStyle;rounded=0;orthogonalLoop=1;jettySize=auto;html=1;exitX=0;exitY=0.5;exitDx=0;exitDy=0;entryX=0.5;entryY=1;entryDx=0;entryDy=0;curved=1;" edge="1" parent="1" source="7Yyz0w7mEjBxyOWhJi1k-14" target="7Yyz0w7mEjBxyOWhJi1k-15">
          <mxGeometry relative="1" as="geometry" />
        </mxCell>
        <mxCell id="5oHdhFXl6NEytomD-qGp-1" style="edgeStyle=orthogonalEdgeStyle;rounded=0;orthogonalLoop=1;jettySize=auto;html=1;exitX=0.5;exitY=0;exitDx=0;exitDy=0;entryX=0.5;entryY=1;entryDx=0;entryDy=0;" edge="1" parent="1" source="7Yyz0w7mEjBxyOWhJi1k-14" target="7Yyz0w7mEjBxyOWhJi1k-2">
          <mxGeometry relative="1" as="geometry" />
        </mxCell>
        <mxCell id="7Yyz0w7mEjBxyOWhJi1k-14" value="S2" style="ellipse;whiteSpace=wrap;html=1;aspect=fixed;" vertex="1" parent="1">
          <mxGeometry x="360" y="810" width="80" height="80" as="geometry" />
        </mxCell>
        <mxCell id="7Yyz0w7mEjBxyOWhJi1k-15" value="S2" style="ellipse;whiteSpace=wrap;html=1;aspect=fixed;" vertex="1" parent="1">
          <mxGeometry x="180" y="610" width="80" height="80" as="geometry" />
        </mxCell>
        <mxCell id="7Yyz0w7mEjBxyOWhJi1k-16" value="&lt;div&gt;!dest_ready /&amp;nbsp;&lt;/div&gt;&lt;div&gt;dest_valid&lt;/div&gt;" style="text;html=1;align=center;verticalAlign=middle;resizable=0;points=[];autosize=1;strokeColor=none;fillColor=none;" vertex="1" parent="1">
          <mxGeometry x="315" y="608" width="100" height="40" as="geometry" />
        </mxCell>
        <mxCell id="7Yyz0w7mEjBxyOWhJi1k-17" style="edgeStyle=orthogonalEdgeStyle;rounded=0;orthogonalLoop=1;jettySize=auto;html=1;exitX=1;exitY=0;exitDx=0;exitDy=0;entryX=0;entryY=0.629;entryDx=0;entryDy=0;entryPerimeter=0;" edge="1" parent="1" source="7Yyz0w7mEjBxyOWhJi1k-15" target="7Yyz0w7mEjBxyOWhJi1k-2">
          <mxGeometry relative="1" as="geometry" />
        </mxCell>
        <mxCell id="7Yyz0w7mEjBxyOWhJi1k-18" style="edgeStyle=orthogonalEdgeStyle;rounded=0;orthogonalLoop=1;jettySize=auto;html=1;exitX=1;exitY=1;exitDx=0;exitDy=0;entryX=0.146;entryY=0.223;entryDx=0;entryDy=0;entryPerimeter=0;curved=1;" edge="1" parent="1" source="7Yyz0w7mEjBxyOWhJi1k-15" target="7Yyz0w7mEjBxyOWhJi1k-14">
          <mxGeometry relative="1" as="geometry" />
        </mxCell>
        <mxCell id="7Yyz0w7mEjBxyOWhJi1k-19" value="stop/dest_valid" style="text;html=1;align=center;verticalAlign=middle;resizable=0;points=[];autosize=1;strokeColor=none;fillColor=none;" vertex="1" parent="1">
          <mxGeometry x="205" y="560" width="100" height="30" as="geometry" />
        </mxCell>
        <mxCell id="7Yyz0w7mEjBxyOWhJi1k-20" style="edgeStyle=orthogonalEdgeStyle;rounded=0;orthogonalLoop=1;jettySize=auto;html=1;exitX=0;exitY=0;exitDx=0;exitDy=0;entryX=0.01;entryY=0.608;entryDx=0;entryDy=0;entryPerimeter=0;curved=1;" edge="1" parent="1" source="7Yyz0w7mEjBxyOWhJi1k-15" target="7Yyz0w7mEjBxyOWhJi1k-15">
          <mxGeometry relative="1" as="geometry">
            <Array as="points">
              <mxPoint x="130" y="622" />
              <mxPoint x="130" y="659" />
            </Array>
          </mxGeometry>
        </mxCell>
        <mxCell id="7Yyz0w7mEjBxyOWhJi1k-21" value="!stop, !dest_ready" style="text;html=1;align=center;verticalAlign=middle;resizable=0;points=[];autosize=1;strokeColor=none;fillColor=none;" vertex="1" parent="1">
          <mxGeometry x="20" y="608" width="120" height="30" as="geometry" />
        </mxCell>
        <mxCell id="7Yyz0w7mEjBxyOWhJi1k-22" value="dest_ready / dest_valid" style="text;html=1;align=center;verticalAlign=middle;resizable=0;points=[];autosize=1;strokeColor=none;fillColor=none;" vertex="1" parent="1">
          <mxGeometry x="440" y="740" width="150" height="30" as="geometry" />
        </mxCell>
        <mxCell id="7Yyz0w7mEjBxyOWhJi1k-23" value="dest_ready / dest_valid" style="text;html=1;align=center;verticalAlign=middle;resizable=0;points=[];autosize=1;strokeColor=none;fillColor=none;" vertex="1" parent="1">
          <mxGeometry x="255" y="710" width="150" height="30" as="geometry" />
        </mxCell>
        <mxCell id="7Yyz0w7mEjBxyOWhJi1k-24" value="!dest_ready / dest_valid" style="text;html=1;align=center;verticalAlign=middle;resizable=0;points=[];autosize=1;strokeColor=none;fillColor=none;" vertex="1" parent="1">
          <mxGeometry x="100" y="790" width="150" height="30" as="geometry" />
        </mxCell>
        <mxCell id="7Yyz0w7mEjBxyOWhJi1k-25" style="edgeStyle=orthogonalEdgeStyle;rounded=0;orthogonalLoop=1;jettySize=auto;html=1;exitX=0;exitY=0;exitDx=0;exitDy=0;entryX=0.635;entryY=1.025;entryDx=0;entryDy=0;entryPerimeter=0;curved=1;" edge="1" parent="1" source="7Yyz0w7mEjBxyOWhJi1k-9" target="7Yyz0w7mEjBxyOWhJi1k-2">
          <mxGeometry relative="1" as="geometry" />
        </mxCell>
        <mxCell id="7Yyz0w7mEjBxyOWhJi1k-26" value="stop/dest_valid" style="text;html=1;align=center;verticalAlign=middle;resizable=0;points=[];autosize=1;strokeColor=none;fillColor=none;" vertex="1" parent="1">
          <mxGeometry x="415" y="580" width="100" height="30" as="geometry" />
        </mxCell>
        <mxCell id="5oHdhFXl6NEytomD-qGp-4" value="stop/dest_valid" style="text;html=1;align=center;verticalAlign=middle;resizable=0;points=[];autosize=1;strokeColor=none;fillColor=none;" vertex="1" parent="1">
          <mxGeometry x="360" y="676" width="100" height="30" as="geometry" />
        </mxCell>
        <mxCell id="5oHdhFXl6NEytomD-qGp-5" value="&lt;font style=&quot;font-size: 50px;&quot;&gt;Complex STG&lt;br&gt;&lt;/font&gt;" style="text;html=1;align=center;verticalAlign=middle;whiteSpace=wrap;rounded=0;" vertex="1" parent="1">
          <mxGeometry x="360" y="350" width="60" height="30" as="geometry" />
        </mxCell>
      </root>
    </mxGraphModel>
  </diagram>
</mxfile>
